<svg width="430" height="123" viewBox="0 0 430 123" fill="none" xmlns="http://www.w3.org/2000/svg">
<g id="Logo">
<g clip-path="url(#clip0)">
<g id="Group 2" filter="url(#filter0_f)">
<g id="Group">
<path id="Vector" d="M53.7583 58.8347C54.9532 57.6457 56.5702 56.9781 58.2559 56.9781C59.9415 56.9781 61.5586 57.6457 62.7535 58.8347L64.1611 60.2423C65.3516 61.4374 66.0201 63.0555 66.0201 64.7424C66.0201 66.4292 65.3516 68.0473 64.1611 69.2424L21.8437 111.56C20.4642 112.94 18.5929 113.716 16.6416 113.716C14.6902 113.716 12.8186 112.942 11.4384 111.562C10.0583 110.183 9.28269 108.312 9.28223 106.36C9.28177 104.409 10.0565 102.537 11.436 101.157L53.7583 58.8347Z" fill="white"/>
<path id="Vector_2" d="M68.7962 103.678C67.6013 104.867 65.9843 105.535 64.2986 105.535C62.6129 105.535 60.9959 104.867 59.801 103.678L19.3229 63.1999C18.1338 62.005 17.4663 60.388 17.4663 58.7023C17.4663 57.0166 18.1338 55.3996 19.3229 54.2047L53.9154 19.6367C60.5297 13.3449 69.3412 9.88764 78.4692 10.0028C87.5972 10.1179 96.3187 13.7964 102.772 20.253C109.226 26.7096 112.9 35.4329 113.01 44.561C113.121 53.6891 109.659 62.4989 103.364 69.11L68.7962 103.678Z" fill="white"/>
</g>
<text id="Fudgepop01" fill="white" xml:space="preserve" style="white-space: pre" font-family="Roboto" font-size="48" font-weight="300" letter-spacing="0em"><tspan x="130" y="79.4062">Fudgepop01</tspan></text>
</g>
<g id="Group 2.1">
<g id="Group_2">
<path id="Vector_3" d="M53.7583 58.8347C54.9532 57.6457 56.5702 56.9781 58.2559 56.9781C59.9415 56.9781 61.5586 57.6457 62.7535 58.8347L64.1611 60.2423C65.3516 61.4374 66.0201 63.0555 66.0201 64.7424C66.0201 66.4292 65.3516 68.0473 64.1611 69.2424L21.8437 111.56C20.4642 112.94 18.5929 113.716 16.6416 113.716C14.6902 113.716 12.8186 112.942 11.4384 111.562C10.0583 110.183 9.28269 108.312 9.28223 106.36C9.28177 104.409 10.0565 102.537 11.436 101.157L53.7583 58.8347Z" fill="white" fill-opacity="0.7"/>
<path id="Vector_4" d="M68.7962 103.678C67.6013 104.867 65.9843 105.535 64.2986 105.535C62.6129 105.535 60.9959 104.867 59.801 103.678L19.3229 63.1999C18.1338 62.005 17.4663 60.388 17.4663 58.7023C17.4663 57.0166 18.1338 55.3996 19.3229 54.2047L53.9154 19.6367C60.5297 13.3449 69.3412 9.88764 78.4692 10.0028C87.5972 10.1179 96.3187 13.7964 102.772 20.253C109.226 26.7096 112.9 35.4329 113.01 44.561C113.121 53.6891 109.659 62.4989 103.364 69.11L68.7962 103.678Z" fill="white" fill-opacity="0.7"/>
</g>
<text id="Fudgepop01_2" fill="white" fill-opacity="0.7" xml:space="preserve" style="white-space: pre" font-family="Roboto" font-size="48" font-weight="300" letter-spacing="0em"><tspan x="130" y="79.4062">Fudgepop01</tspan></text>
</g>
</g>
</g>
<defs>
<filter id="filter0_f" x="-0.717773" y="0" width="394.733" height="123.716" filterUnits="userSpaceOnUse" color-interpolation-filters="sRGB">
<feFlood flood-opacity="0" result="BackgroundImageFix"/>
<feBlend mode="normal" in="SourceGraphic" in2="BackgroundImageFix" result="shape"/>
<feGaussianBlur stdDeviation="5" result="effect1_foregroundBlur"/>
</filter>
<clipPath id="clip0">
</clipPath>
</defs>
</svg>
